# Blender 3.3.1
# www.blender.org
mtllib backlight_right.mtl
o backlight_right
v 3.350309 0.533691 -0.685741
v 3.340370 0.537512 -0.708132
v 3.350066 0.540245 -0.684572
v 3.360256 0.529666 -0.663387
v 3.350582 0.526332 -0.687053
v 3.338474 0.531109 -0.714297
v 3.342471 0.542838 -0.701769
v 3.357692 0.536832 -0.667522
v 3.362690 0.521555 -0.659810
v 3.351638 0.497833 -0.692136
v 3.352061 0.486439 -0.694168
v 3.334416 0.504627 -0.730886
v 3.351246 0.508406 -0.690250
v 3.368861 0.491038 -0.653386
v 3.370436 0.479189 -0.652824
v 3.333686 0.493688 -0.735512
v 3.335468 0.514632 -0.725751
v 3.367025 0.502181 -0.654749
v 3.356567 0.364846 -0.715851
v 3.366506 0.361026 -0.693461
v 3.356810 0.358293 -0.717020
v 3.346620 0.368872 -0.738205
v 3.356294 0.372206 -0.714539
v 3.368402 0.367429 -0.687296
v 3.364405 0.355700 -0.699824
v 3.349184 0.361705 -0.734070
v 3.344186 0.376983 -0.741782
v 3.355238 0.400705 -0.709457
v 3.372460 0.393910 -0.670707
v 3.355630 0.390131 -0.711342
v 3.338016 0.407500 -0.748207
v 3.354816 0.412099 -0.707425
v 3.373191 0.404849 -0.666081
v 3.371408 0.383906 -0.675841
v 3.339852 0.396357 -0.746844
v 3.336441 0.419349 -0.748769
v 3.353438 0.449269 -0.700796
v 3.353909 0.436586 -0.703058
v 3.333552 0.457115 -0.745541
v 3.352968 0.461952 -0.698535
v 3.373325 0.441423 -0.656052
v 3.373627 0.428806 -0.658691
v 3.334190 0.444366 -0.747425
v 3.333250 0.469732 -0.742901
v 3.372687 0.454172 -0.654168
v 3.335156 0.431704 -0.748514
v 3.354370 0.424123 -0.705281
v 3.373585 0.416542 -0.662047
v 3.371721 0.466834 -0.653079
v 3.352506 0.474415 -0.696312
v 3.333292 0.481996 -0.739545
v 3.370050 0.375019 -0.681399
v 3.355984 0.380568 -0.713048
v 3.341918 0.386118 -0.744697
v 3.336826 0.523519 -0.720194
v 3.350892 0.517970 -0.688545
v 3.364958 0.512420 -0.656896
v 3.384116 0.369469 -0.649750
v 3.380510 0.362651 -0.660052
v 3.313531 0.477511 -0.787268
v 3.317194 0.511422 -0.769635
v 3.319690 0.520857 -0.761253
v 3.322760 0.529069 -0.751843
v 3.390936 0.459253 -0.609846
v 3.382803 0.495956 -0.619248
v 3.332078 0.381760 -0.769026
v 3.336669 0.373000 -0.760541
v 3.392405 0.446392 -0.609801
v 3.393211 0.433577 -0.611307
v 3.387186 0.377681 -0.640340
v 3.391566 0.397599 -0.624737
v 3.357038 0.352141 -0.718117
v 3.318066 0.426598 -0.790113
v 3.324073 0.402582 -0.782345
v 3.374798 0.516778 -0.632567
v 3.365333 0.533010 -0.650545
v 3.376441 0.357308 -0.671052
v 3.371984 0.353518 -0.682554
v 3.367213 0.351359 -0.694364
v 3.315941 0.439285 -0.791747
v 3.314471 0.452145 -0.791791
v 3.313665 0.464961 -0.790285
v 3.314077 0.489577 -0.782778
v 3.315310 0.500938 -0.776856
v 3.326366 0.535886 -0.741540
v 3.330435 0.541230 -0.730540
v 3.334891 0.545020 -0.719038
v 3.388811 0.471939 -0.611480
v 3.386083 0.484243 -0.614636
v 3.341544 0.365528 -0.751047
v 3.346619 0.359485 -0.740701
v 3.393345 0.421026 -0.614325
v 3.392799 0.408961 -0.618814
v 3.362201 0.350913 -0.706285
v 3.351814 0.355011 -0.729656
v 3.344676 0.547625 -0.695307
v 3.349839 0.546396 -0.683475
v 3.355062 0.543527 -0.671936
v 3.360257 0.539053 -0.660892
v 3.339663 0.547178 -0.707229
v 3.379024 0.506870 -0.625247
v 3.327852 0.391668 -0.776346
v 3.389682 0.387115 -0.631957
v 3.320794 0.414295 -0.786956
v 3.370207 0.525538 -0.641051
vn 0.9155 0.1033 -0.3888
vn 0.9155 0.1032 -0.3888
vn 0.9155 0.1031 -0.3888
vn 0.9155 0.1034 -0.3888
vn 0.9155 0.1033 -0.3887
vt 0.015163 0.992236
vt 0.010222 0.989416
vt 0.014355 0.993613
vt 0.020104 0.995056
vt 0.016042 0.990738
vt 0.010039 0.987312
vt 0.010537 0.991434
vt 0.018173 0.995792
vt 0.022045 0.994165
vt 0.019398 0.985019
vt 0.020740 0.982732
vt 0.010859 0.980146
vt 0.018153 0.987141
vt 0.027936 0.989892
vt 0.029850 0.987932
vt 0.011629 0.977533
vt 0.010330 0.982676
vt 0.025975 0.991606
vt 0.035070 0.958308
vt 0.040011 0.961128
vt 0.035878 0.956931
vt 0.030129 0.955488
vt 0.034191 0.959806
vt 0.040194 0.963232
vt 0.039695 0.959110
vt 0.032060 0.954752
vt 0.028188 0.956380
vt 0.030835 0.965526
vt 0.039374 0.970399
vt 0.032080 0.963403
vt 0.022296 0.960652
vt 0.029493 0.967812
vt 0.038604 0.973012
vt 0.039903 0.967868
vt 0.024257 0.958939
vt 0.020383 0.962613
vt 0.025116 0.975272
vt 0.026610 0.972727
vt 0.015257 0.969645
vt 0.023623 0.977818
vt 0.034976 0.980899
vt 0.036386 0.978306
vt 0.016834 0.967147
vt 0.013847 0.972238
vt 0.033399 0.983397
vt 0.018551 0.964788
vt 0.028078 0.970225
vt 0.037604 0.975662
vt 0.031682 0.985756
vt 0.022155 0.980319
vt 0.012629 0.974882
vt 0.040180 0.965464
vt 0.033206 0.961484
vt 0.026232 0.957504
vt 0.010053 0.985080
vt 0.017027 0.989060
vt 0.024000 0.993040
vt 0.047154 0.969445
vt 0.046197 0.966658
vt 0.004071 0.966658
vt 0.002321 0.975272
vt 0.002507 0.978211
vt 0.003079 0.981100
vt 0.041208 0.991193
vt 0.033798 0.996070
vt 0.022185 0.952953
vt 0.025188 0.952668
vt 0.043175 0.988977
vt 0.044835 0.986526
vt 0.047726 0.972333
vt 0.047714 0.978211
vt 0.036650 0.955614
vt 0.011273 0.957413
vt 0.016435 0.954474
vt 0.028048 0.997591
vt 0.021991 0.997971
vt 0.044951 0.963948
vt 0.043513 0.961289
vt 0.041979 0.958655
vt 0.009025 0.959351
vt 0.007058 0.961567
vt 0.005398 0.964018
vt 0.003103 0.969445
vt 0.002519 0.972333
vt 0.004036 0.983886
vt 0.005281 0.986596
vt 0.006720 0.989255
vt 0.038960 0.993131
vt 0.036475 0.994765
vt 0.028242 0.952573
vt 0.031322 0.952573
vt 0.046162 0.983886
vt 0.047130 0.981100
vt 0.039314 0.957135
vt 0.033986 0.954094
vt 0.010918 0.993409
vt 0.013583 0.994930
vt 0.016247 0.996450
vt 0.018911 0.997971
vt 0.008254 0.991889
vt 0.030974 0.997021
vt 0.019258 0.953524
vt 0.047912 0.975272
vt 0.013758 0.955779
vt 0.025045 0.997876
s 1
usemtl main_texture
f 1/1/1 5/5/1 6/6/1 2/2/1
f 5/5/1 56/56/1 55/55/1 6/6/1
f 1/1/1 2/2/1 7/7/1 3/3/2
f 1/1/1 3/3/2 8/8/1 4/4/2
f 1/1/1 4/4/2 9/9/1 5/5/1
f 5/5/1 9/9/1 57/57/1 56/56/1
f 10/10/1 14/14/1 15/15/1 11/11/1
f 11/11/1 15/15/1 49/49/1 50/50/1
f 10/10/1 11/11/1 16/16/1 12/12/1
f 11/11/1 50/50/1 51/51/1 16/16/1
f 10/10/1 12/12/1 17/17/2 13/13/1
f 13/13/1 17/17/2 55/55/1 56/56/1
f 12/12/1 61/61/1 62/62/2 17/17/2
f 17/17/2 62/62/2 63/63/2 55/55/1
f 10/10/1 13/13/1 18/18/1 14/14/1
f 13/13/1 56/56/1 57/57/1 18/18/1
f 19/19/1 23/23/1 24/24/2 20/20/2
f 23/23/1 53/53/2 52/52/1 24/24/2
f 24/24/2 52/52/1 58/58/1 59/59/2
f 19/19/1 20/20/2 25/25/1 21/21/1
f 19/19/1 21/21/1 26/26/1 22/22/1
f 19/19/1 22/22/1 27/27/2 23/23/1
f 23/23/1 27/27/2 54/54/2 53/53/2
f 22/22/1 67/67/2 66/66/2 27/27/2
f 28/28/1 32/32/1 33/33/1 29/29/2
f 32/32/1 47/47/1 48/48/1 33/33/1
f 28/28/1 29/29/2 34/34/2 30/30/2
f 30/30/2 34/34/2 52/52/1 53/53/2
f 34/34/2 70/70/2 58/58/1 52/52/1
f 28/28/1 30/30/2 35/35/1 31/31/1
f 30/30/2 53/53/2 54/54/2 35/35/1
f 28/28/1 31/31/1 36/36/1 32/32/1
f 32/32/1 36/36/1 46/46/1 47/47/1
f 37/37/1 41/41/1 42/42/2 38/38/1
f 38/38/1 42/42/2 48/48/1 47/47/1
f 37/37/1 38/38/1 43/43/1 39/39/1
f 38/38/1 47/47/1 46/46/1 43/43/1
f 37/37/1 39/39/1 44/44/1 40/40/1
f 40/40/1 44/44/1 51/51/1 50/50/1
f 37/37/1 40/40/1 45/45/1 41/41/1
f 41/41/1 45/45/1 68/68/1 69/69/1
f 40/40/1 50/50/1 49/49/1 45/45/1
f 45/45/1 49/49/1 64/64/2 68/68/1
f 2/2/1 6/6/1 85/85/1 86/86/2
f 6/6/1 55/55/1 63/63/2 85/85/1
f 3/3/2 7/7/1 96/96/3 97/97/2
f 2/2/1 86/86/2 87/87/4 7/7/1
f 7/7/1 87/87/4 100/100/1 96/96/3
f 4/4/2 8/8/1 76/76/2 105/105/2
f 3/3/2 97/97/2 98/98/1 8/8/1
f 8/8/1 98/98/1 99/99/4 76/76/2
f 4/4/2 105/105/2 75/75/1 9/9/1
f 9/9/1 75/75/1 101/101/1 57/57/1
f 14/14/1 89/89/1 88/88/1 15/15/1
f 15/15/1 88/88/1 64/64/2 49/49/1
f 12/12/1 16/16/1 84/84/1 61/61/1
f 16/16/1 51/51/1 83/83/1 84/84/1
f 14/14/1 18/18/1 65/65/1 89/89/1
f 18/18/1 57/57/1 101/101/1 65/65/1
f 20/20/2 24/24/2 59/59/2 77/77/2
f 21/21/1 25/25/1 94/94/1 72/72/1
f 20/20/2 77/77/2 78/78/2 25/25/1
f 25/25/1 78/78/2 79/79/1 94/94/1
f 22/22/1 26/26/1 90/90/1 67/67/2
f 21/21/1 72/72/1 95/95/1 26/26/1
f 26/26/1 95/95/1 91/91/5 90/90/1
f 27/27/2 66/66/2 102/102/2 54/54/2
f 29/29/2 33/33/1 71/71/1 103/103/2
f 33/33/1 48/48/1 93/93/1 71/71/1
f 29/29/2 103/103/2 70/70/2 34/34/2
f 31/31/1 35/35/1 74/74/1 104/104/1
f 35/35/1 54/54/2 102/102/2 74/74/1
f 31/31/1 104/104/1 73/73/2 36/36/1
f 36/36/1 73/73/2 80/80/1 46/46/1
f 41/41/1 69/69/1 92/92/2 42/42/2
f 42/42/2 92/92/2 93/93/1 48/48/1
f 39/39/1 43/43/1 81/81/1 82/82/1
f 43/43/1 46/46/1 80/80/1 81/81/1
f 39/39/1 82/82/1 60/60/2 44/44/1
f 44/44/1 60/60/2 83/83/1 51/51/1
