# Blender 3.3.1
# www.blender.org
mtllib backlight_left.mtl
o backlight_left
v 3.350309 0.533691 0.685740
v 3.350582 0.526332 0.687052
v 3.360256 0.529666 0.663386
v 3.350066 0.540245 0.684571
v 3.340370 0.537512 0.708130
v 3.338474 0.531109 0.714295
v 3.362690 0.521555 0.659809
v 3.357692 0.536832 0.667521
v 3.342472 0.542838 0.701767
v 3.351638 0.497833 0.692134
v 3.368860 0.491038 0.653385
v 3.351246 0.508406 0.690249
v 3.334416 0.504627 0.730884
v 3.352061 0.486439 0.694166
v 3.370436 0.479189 0.652822
v 3.367025 0.502181 0.654748
v 3.335468 0.514632 0.725750
v 3.333686 0.493688 0.735510
v 3.356567 0.364846 0.715850
v 3.356294 0.372206 0.714538
v 3.346620 0.368872 0.738204
v 3.356810 0.358293 0.717019
v 3.366506 0.361026 0.693460
v 3.368402 0.367429 0.687294
v 3.344186 0.376983 0.741781
v 3.349184 0.361705 0.734069
v 3.364405 0.355700 0.699822
v 3.355238 0.400705 0.709455
v 3.354816 0.412099 0.707423
v 3.338016 0.407500 0.748205
v 3.355630 0.390131 0.711341
v 3.372460 0.393910 0.670705
v 3.373191 0.404849 0.666079
v 3.336441 0.419349 0.748767
v 3.339852 0.396357 0.746842
v 3.371408 0.383906 0.675840
v 3.353438 0.449269 0.700795
v 3.373325 0.441423 0.656050
v 3.352968 0.461952 0.698533
v 3.333552 0.457115 0.745539
v 3.353909 0.436586 0.703057
v 3.373627 0.428806 0.658690
v 3.372687 0.454172 0.654166
v 3.333250 0.469731 0.742900
v 3.334190 0.444366 0.747423
v 3.335155 0.431704 0.748512
v 3.354370 0.424123 0.705279
v 3.373585 0.416542 0.662046
v 3.371721 0.466834 0.653077
v 3.352506 0.474415 0.696310
v 3.333292 0.481996 0.739544
v 3.370050 0.375019 0.681397
v 3.355984 0.380568 0.713046
v 3.341918 0.386118 0.744695
v 3.336826 0.523519 0.720192
v 3.350892 0.517970 0.688543
v 3.364958 0.512420 0.656894
v 3.376441 0.357308 0.671051
v 3.371984 0.353518 0.682553
v 3.367213 0.351359 0.694362
v 3.315941 0.439285 0.791746
v 3.313665 0.464961 0.790284
v 3.314077 0.489577 0.782777
v 3.315310 0.500938 0.776854
v 3.317194 0.511422 0.769634
v 3.319690 0.520857 0.761251
v 3.322760 0.529069 0.751841
v 3.326366 0.535886 0.741539
v 3.334891 0.545020 0.719037
v 3.339663 0.547178 0.707228
v 3.386083 0.484243 0.614635
v 3.382803 0.495956 0.619246
v 3.379024 0.506870 0.625246
v 3.327852 0.391668 0.776344
v 3.392405 0.446392 0.609800
v 3.393211 0.433577 0.611306
v 3.393345 0.421026 0.614323
v 3.392799 0.408961 0.618813
v 3.387186 0.377681 0.640338
v 3.389682 0.387115 0.631956
v 3.391566 0.397599 0.624735
v 3.362201 0.350913 0.706284
v 3.357038 0.352141 0.718116
v 3.351814 0.355011 0.729655
v 3.320794 0.414295 0.786955
v 3.324073 0.402582 0.782343
v 3.344676 0.547625 0.695306
v 3.349839 0.546396 0.683474
v 3.374798 0.516778 0.632565
v 3.365333 0.533010 0.650544
v 3.384116 0.369469 0.649749
v 3.380510 0.362651 0.660051
v 3.390936 0.459253 0.609844
v 3.388811 0.471939 0.611478
v 3.332078 0.381760 0.769024
v 3.336669 0.373000 0.760540
v 3.341544 0.365528 0.751046
v 3.346619 0.359485 0.740699
v 3.360257 0.539053 0.660890
v 3.314471 0.452145 0.791790
v 3.313531 0.477511 0.787266
v 3.330435 0.541230 0.730539
v 3.318066 0.426598 0.790111
v 3.355062 0.543527 0.671935
v 3.370207 0.525538 0.641050
vn 0.9155 0.1032 0.3888
vn 0.9155 0.1033 0.3888
vt 0.015163 0.992236
vt 0.016042 0.990739
vt 0.020104 0.995056
vt 0.014355 0.993613
vt 0.010222 0.989416
vt 0.010039 0.987312
vt 0.022045 0.994165
vt 0.018173 0.995792
vt 0.010537 0.991434
vt 0.019398 0.985019
vt 0.027936 0.989892
vt 0.018153 0.987141
vt 0.010859 0.980146
vt 0.020740 0.982732
vt 0.029850 0.987932
vt 0.025975 0.991606
vt 0.010330 0.982676
vt 0.011629 0.977533
vt 0.035070 0.958308
vt 0.034191 0.959806
vt 0.030129 0.955488
vt 0.035878 0.956931
vt 0.040011 0.961128
vt 0.040194 0.963232
vt 0.028188 0.956380
vt 0.032060 0.954752
vt 0.039695 0.959110
vt 0.030835 0.965526
vt 0.029493 0.967812
vt 0.022296 0.960652
vt 0.032080 0.963403
vt 0.039374 0.970399
vt 0.038604 0.973012
vt 0.020383 0.962613
vt 0.024257 0.958939
vt 0.039903 0.967868
vt 0.025116 0.975272
vt 0.034976 0.980899
vt 0.023623 0.977818
vt 0.015257 0.969645
vt 0.026610 0.972727
vt 0.036386 0.978306
vt 0.033399 0.983397
vt 0.013847 0.972238
vt 0.016834 0.967147
vt 0.018551 0.964788
vt 0.028078 0.970225
vt 0.037604 0.975662
vt 0.031682 0.985756
vt 0.022155 0.980319
vt 0.012629 0.974882
vt 0.040180 0.965464
vt 0.033206 0.961484
vt 0.026232 0.957504
vt 0.010053 0.985080
vt 0.017027 0.989060
vt 0.024000 0.993040
vt 0.044951 0.963948
vt 0.043513 0.961289
vt 0.041979 0.958655
vt 0.009025 0.959351
vt 0.005398 0.964018
vt 0.003103 0.969445
vt 0.002519 0.972333
vt 0.002321 0.975272
vt 0.002507 0.978211
vt 0.003079 0.981100
vt 0.004036 0.983886
vt 0.006720 0.989255
vt 0.008254 0.991889
vt 0.036475 0.994765
vt 0.033798 0.996070
vt 0.030974 0.997021
vt 0.019258 0.953524
vt 0.043175 0.988977
vt 0.044835 0.986526
vt 0.046162 0.983886
vt 0.047130 0.981100
vt 0.047726 0.972333
vt 0.047912 0.975272
vt 0.047714 0.978211
vt 0.039314 0.957135
vt 0.036650 0.955614
vt 0.033986 0.954094
vt 0.013758 0.955779
vt 0.016435 0.954474
vt 0.010918 0.993409
vt 0.013583 0.994930
vt 0.028048 0.997591
vt 0.021991 0.997971
vt 0.047154 0.969445
vt 0.046197 0.966658
vt 0.041208 0.991193
vt 0.038960 0.993131
vt 0.022185 0.952953
vt 0.025188 0.952668
vt 0.028242 0.952573
vt 0.031322 0.952573
vt 0.018911 0.997971
vt 0.007058 0.961567
vt 0.004071 0.966658
vt 0.005281 0.986596
vt 0.011273 0.957413
vt 0.016247 0.996450
vt 0.025045 0.997876
s 1
usemtl main_texture
f 1/1/1 5/5/1 6/6/1 2/2/2
f 2/2/2 6/6/1 55/55/2 56/56/2
f 6/6/1 68/68/2 67/67/2 55/55/2
f 1/1/1 2/2/2 7/7/2 3/3/1
f 2/2/2 56/56/2 57/57/2 7/7/2
f 7/7/2 57/57/2 73/73/2 89/89/2
f 1/1/1 3/3/1 8/8/2 4/4/1
f 1/1/1 4/4/1 9/9/2 5/5/1
f 4/4/1 88/88/1 87/87/1 9/9/2
f 9/9/2 87/87/1 70/70/2 69/69/2
f 10/10/2 14/14/2 15/15/2 11/11/2
f 14/14/2 50/50/2 49/49/2 15/15/2
f 10/10/2 11/11/2 16/16/2 12/12/2
f 12/12/2 16/16/2 57/57/2 56/56/2
f 11/11/2 71/71/2 72/72/2 16/16/2
f 16/16/2 72/72/2 73/73/2 57/57/2
f 10/10/2 12/12/2 17/17/1 13/13/2
f 13/13/2 17/17/1 66/66/1 65/65/2
f 12/12/2 56/56/2 55/55/2 17/17/1
f 17/17/1 55/55/2 67/67/2 66/66/1
f 10/10/2 13/13/2 18/18/2 14/14/2
f 14/14/2 18/18/2 51/51/2 50/50/2
f 13/13/2 65/65/2 64/64/2 18/18/2
f 18/18/2 64/64/2 63/63/2 51/51/2
f 19/19/2 23/23/2 24/24/2 20/20/2
f 20/20/2 24/24/2 52/52/2 53/53/2
f 19/19/2 20/20/2 25/25/2 21/21/2
f 20/20/2 53/53/2 54/54/1 25/25/2
f 19/19/2 21/21/2 26/26/2 22/22/2
f 22/22/2 26/26/2 84/84/2 83/83/2
f 19/19/2 22/22/2 27/27/2 23/23/2
f 23/23/2 27/27/2 59/59/1 58/58/1
f 22/22/2 83/83/2 82/82/2 27/27/2
f 27/27/2 82/82/2 60/60/1 59/59/1
f 28/28/2 32/32/2 33/33/2 29/29/2
f 29/29/2 33/33/2 48/48/2 47/47/1
f 32/32/2 80/80/2 81/81/2 33/33/2
f 33/33/2 81/81/2 78/78/2 48/48/2
f 28/28/2 29/29/2 34/34/2 30/30/2
f 29/29/2 47/47/1 46/46/1 34/34/2
f 28/28/2 30/30/2 35/35/2 31/31/1
f 31/31/1 35/35/2 54/54/1 53/53/2
f 30/30/2 85/85/2 86/86/2 35/35/2
f 35/35/2 86/86/2 74/74/1 54/54/1
f 28/28/2 31/31/1 36/36/1 32/32/2
f 32/32/2 36/36/1 79/79/1 80/80/2
f 31/31/1 53/53/2 52/52/2 36/36/1
f 37/37/2 41/41/2 42/42/2 38/38/2
f 38/38/2 42/42/2 77/77/1 76/76/2
f 41/41/2 47/47/1 48/48/2 42/42/2
f 42/42/2 48/48/2 78/78/2 77/77/1
f 37/37/2 38/38/2 43/43/2 39/39/2
f 39/39/2 43/43/2 49/49/2 50/50/2
f 38/38/2 76/76/2 75/75/2 43/43/2
f 37/37/2 39/39/2 44/44/2 40/40/2
f 39/39/2 50/50/2 51/51/2 44/44/2
f 37/37/2 40/40/2 45/45/2 41/41/2
f 41/41/2 45/45/2 46/46/1 47/47/1
f 5/5/1 102/102/1 68/68/2 6/6/1
f 3/3/1 7/7/2 89/89/2 105/105/1
f 4/4/1 8/8/2 104/104/2 88/88/1
f 3/3/1 105/105/1 90/90/1 8/8/2
f 8/8/2 90/90/1 99/99/2 104/104/2
f 5/5/1 9/9/2 69/69/2 102/102/1
f 11/11/2 15/15/2 94/94/2 71/71/2
f 15/15/2 49/49/2 93/93/2 94/94/2
f 23/23/2 58/58/1 92/92/2 24/24/2
f 24/24/2 92/92/2 91/91/1 52/52/2
f 21/21/2 25/25/2 95/95/2 96/96/1
f 25/25/2 54/54/1 74/74/1 95/95/2
f 21/21/2 96/96/1 97/97/2 26/26/2
f 26/26/2 97/97/2 98/98/2 84/84/2
f 30/30/2 34/34/2 103/103/2 85/85/2
f 34/34/2 46/46/1 61/61/2 103/103/2
f 36/36/1 52/52/2 91/91/1 79/79/1
f 43/43/2 75/75/2 93/93/2 49/49/2
f 40/40/2 44/44/2 101/101/2 62/62/2
f 44/44/2 51/51/2 63/63/2 101/101/2
f 40/40/2 62/62/2 100/100/2 45/45/2
f 45/45/2 100/100/2 61/61/2 46/46/1
