# Blender 3.3.1
# www.blender.org
mtllib headlight_right.mtl
o headlight_right
v -2.847249 0.035446 -0.523360
v -2.847249 0.053380 -0.523360
v -2.795708 0.035446 -0.603302
v -2.847249 0.017511 -0.523360
v -2.898789 0.035446 -0.443418
v -2.898789 0.053380 -0.443418
v -2.795708 0.053380 -0.603302
v -2.795708 0.017511 -0.603302
v -2.898789 0.017512 -0.443418
v -2.744168 0.035446 -0.683244
v -2.744168 0.053380 -0.683244
v -2.898789 -0.000423 -0.443418
v -2.847249 -0.000423 -0.523360
v -2.795708 -0.000423 -0.603302
v -2.898789 0.071314 -0.443418
v -2.950329 0.071314 -0.363476
v -2.950329 0.035446 -0.363476
v -2.950329 0.053380 -0.363476
v -2.744168 -0.000423 -0.683244
v -2.744168 0.071314 -0.683244
v -2.795708 0.071314 -0.603302
v -2.847249 0.071314 -0.523360
v -2.950329 -0.000423 -0.363476
v -2.744168 0.017512 -0.683244
v -2.950329 0.017512 -0.363476
vn -0.8405 -0.0000 -0.5419
vt 0.979611 0.957798
vt 0.976826 0.957798
vt 0.979611 0.943189
vt 0.982397 0.957798
vt 0.979611 0.972407
vt 0.976826 0.972407
vt 0.976826 0.943189
vt 0.982397 0.943189
vt 0.982397 0.972407
vt 0.979611 0.928580
vt 0.976826 0.928580
vt 0.985183 0.972407
vt 0.985183 0.957798
vt 0.985183 0.943189
vt 0.974040 0.972407
vt 0.974040 0.987016
vt 0.979611 0.987016
vt 0.976826 0.987016
vt 0.985183 0.928580
vt 0.974040 0.928580
vt 0.974040 0.943189
vt 0.974040 0.957798
vt 0.985183 0.987016
vt 0.982397 0.928580
vt 0.982397 0.987016
s 1
usemtl main_texture
f 1/1/1 5/5/1 6/6/1 2/2/1
f 5/5/1 17/17/1 18/18/1 6/6/1
f 6/6/1 18/18/1 16/16/1 15/15/1
f 1/1/1 2/2/1 7/7/1 3/3/1
f 3/3/1 7/7/1 11/11/1 10/10/1
f 1/1/1 3/3/1 8/8/1 4/4/1
f 4/4/1 8/8/1 14/14/1 13/13/1
f 1/1/1 4/4/1 9/9/1 5/5/1
f 4/4/1 13/13/1 12/12/1 9/9/1
f 2/2/1 6/6/1 15/15/1 22/22/1
f 2/2/1 22/22/1 21/21/1 7/7/1
f 7/7/1 21/21/1 20/20/1 11/11/1
f 3/3/1 10/10/1 24/24/1 8/8/1
f 8/8/1 24/24/1 19/19/1 14/14/1
f 5/5/1 9/9/1 25/25/1 17/17/1
f 9/9/1 12/12/1 23/23/1 25/25/1
