# Blender 3.3.1
# www.blender.org
mtllib stoplight_left.mtl
o stoplight_left
v 3.272105 0.556612 0.863808
v 3.279217 0.551778 0.848345
v 3.272150 0.561179 0.862488
v 3.264991 0.561304 0.879312
v 3.272054 0.551485 0.865289
v 3.280715 0.545684 0.846434
v 3.277591 0.557247 0.850720
v 3.266703 0.564539 0.874422
v 3.263393 0.557285 0.884143
v 3.271858 0.531627 0.871025
v 3.284178 0.523377 0.844207
v 3.271931 0.538995 0.868897
v 3.259539 0.539878 0.897843
v 3.271780 0.523688 0.873318
v 3.284924 0.514886 0.844705
v 3.283218 0.531436 0.844327
v 3.260644 0.546553 0.893466
v 3.258636 0.532491 0.901931
v 3.270943 0.438967 0.897790
v 3.263832 0.443801 0.913253
v 3.270898 0.434400 0.899110
v 3.278056 0.434275 0.882286
v 3.270994 0.444094 0.896309
v 3.262333 0.449895 0.915164
v 3.265457 0.438331 0.910878
v 3.276345 0.431040 0.887176
v 3.279655 0.438294 0.877455
v 3.271190 0.463952 0.890573
v 3.258870 0.472202 0.917391
v 3.271117 0.456584 0.892702
v 3.283509 0.455701 0.863755
v 3.271268 0.471891 0.888280
v 3.258124 0.480693 0.916894
v 3.259830 0.464143 0.917271
v 3.282403 0.449026 0.868132
v 3.284412 0.463088 0.859667
v 3.271524 0.497789 0.880799
v 3.271611 0.506626 0.878246
v 3.257298 0.507316 0.911766
v 3.271437 0.488952 0.883352
v 3.285749 0.488263 0.849832
v 3.285716 0.497180 0.847541
v 3.257506 0.516073 0.908952
v 3.257332 0.498398 0.914057
v 3.285542 0.479506 0.852646
v 3.261935 0.552396 0.888876
v 3.271997 0.545658 0.866972
v 3.282058 0.538920 0.845068
v 3.285096 0.471063 0.855939
v 3.271351 0.480268 0.885860
v 3.257606 0.489473 0.915781
v 3.285442 0.506106 0.845817
v 3.271697 0.515311 0.875738
v 3.257952 0.524515 0.905659
v 3.281113 0.443182 0.872723
v 3.271051 0.449921 0.894626
v 3.260990 0.456659 0.916530
v 3.243861 0.498678 0.945702
v 3.292120 0.532181 0.823165
v 3.270856 0.430114 0.900348
v 3.274576 0.428197 0.892095
v 3.285170 0.429654 0.866762
v 3.244980 0.489496 0.945507
v 3.243226 0.507845 0.944763
v 3.244208 0.533720 0.935580
v 3.247219 0.548128 0.924661
v 3.279535 0.558246 0.845876
v 3.283029 0.553030 0.839035
v 3.286328 0.546871 0.832903
v 3.299187 0.496901 0.815896
v 3.272192 0.565465 0.861250
v 3.275902 0.562405 0.853328
v 3.257878 0.565925 0.894836
v 3.254732 0.563085 0.902998
v 3.260019 0.442549 0.922564
v 3.256720 0.448707 0.928696
v 3.295828 0.447451 0.836937
v 3.297556 0.454285 0.831053
v 3.299975 0.478736 0.818865
v 3.299647 0.470060 0.821941
v 3.288316 0.432493 0.858600
v 3.291174 0.436444 0.850819
v 3.250928 0.463398 0.938434
v 3.248544 0.471702 0.941841
v 3.246551 0.480452 0.944210
v 3.243073 0.516843 0.942733
v 3.243401 0.525519 0.939657
v 3.249358 0.554112 0.918036
v 3.251873 0.559135 0.910779
v 3.298068 0.506083 0.816091
v 3.296497 0.515126 0.817389
v 3.294504 0.523877 0.819757
v 3.253672 0.455695 0.934019
v 3.293690 0.441467 0.843562
v 3.278244 0.427467 0.883653
v 3.263513 0.437333 0.915722
v 3.267147 0.433173 0.908270
v 3.281794 0.427966 0.875160
v 3.245491 0.541293 0.930545
v 3.289376 0.539884 0.827580
v 3.264804 0.568112 0.877945
v 3.268471 0.567381 0.869503
v 3.261254 0.567613 0.886438
v 3.298841 0.461859 0.826018
v 3.299821 0.487734 0.816836
vn 0.9155 0.1033 0.3888
vn 0.9155 0.1032 0.3888
vn 0.9155 0.1031 0.3888
vn 0.9155 0.1034 0.3888
vn 0.9155 0.1032 0.3887
vn 0.9155 0.1034 0.3887
vt 0.535187 0.489386
vt 0.538717 0.491401
vt 0.534610 0.490370
vt 0.531657 0.487371
vt 0.535815 0.488316
vt 0.540104 0.490764
vt 0.537337 0.491927
vt 0.531882 0.488813
vt 0.531526 0.485868
vt 0.538213 0.484229
vt 0.544313 0.487711
vt 0.537323 0.485746
vt 0.532112 0.480748
vt 0.539171 0.482596
vt 0.545680 0.486311
vt 0.542912 0.488936
vt 0.531734 0.482556
vt 0.532662 0.478881
vt 0.549410 0.465145
vt 0.545880 0.463131
vt 0.549987 0.464162
vt 0.552940 0.467160
vt 0.548782 0.466215
vt 0.544493 0.463768
vt 0.547260 0.462605
vt 0.552715 0.465718
vt 0.553071 0.468663
vt 0.546384 0.470302
vt 0.540284 0.466820
vt 0.547274 0.468786
vt 0.552485 0.473784
vt 0.545426 0.471936
vt 0.538917 0.468221
vt 0.541685 0.465596
vt 0.552863 0.471976
vt 0.551935 0.475651
vt 0.542298 0.477266
vt 0.541231 0.479084
vt 0.535254 0.473245
vt 0.543366 0.475447
vt 0.549343 0.481286
vt 0.548216 0.483071
vt 0.534247 0.475098
vt 0.536381 0.471460
vt 0.550350 0.479434
vt 0.531536 0.484273
vt 0.536519 0.487117
vt 0.541501 0.489961
vt 0.551221 0.477545
vt 0.544414 0.473660
vt 0.537608 0.469775
vt 0.546989 0.484756
vt 0.540183 0.480871
vt 0.533377 0.476987
vt 0.553061 0.470258
vt 0.548079 0.467415
vt 0.543096 0.464571
vt 0.530801 0.465890
vt 0.546484 0.492804
vt 0.550539 0.463221
vt 0.552443 0.464307
vt 0.556470 0.469175
vt 0.532408 0.464506
vt 0.529396 0.467474
vt 0.526570 0.473102
vt 0.526012 0.477266
vt 0.537865 0.493483
vt 0.540065 0.493483
vt 0.542247 0.493416
vt 0.553796 0.488641
vt 0.534058 0.491311
vt 0.535961 0.492397
vt 0.528127 0.485356
vt 0.527237 0.483420
vt 0.544532 0.461048
vt 0.542350 0.461116
vt 0.558586 0.477266
vt 0.558444 0.479366
vt 0.556387 0.485307
vt 0.557335 0.483420
vt 0.557360 0.471111
vt 0.558044 0.473102
vt 0.538113 0.461727
vt 0.536096 0.462406
vt 0.534183 0.463338
vt 0.528210 0.469225
vt 0.527262 0.471111
vt 0.526145 0.479366
vt 0.526553 0.481429
vt 0.552189 0.490025
vt 0.550414 0.491193
vt 0.548501 0.492125
vt 0.540204 0.461320
vt 0.558452 0.475166
vt 0.554346 0.465393
vt 0.546732 0.461048
vt 0.548636 0.462134
vt 0.555442 0.467275
vt 0.526153 0.475166
vt 0.544393 0.493212
vt 0.530251 0.489138
vt 0.532154 0.490224
vt 0.529155 0.487256
vt 0.558027 0.481429
vt 0.555201 0.487057
s 1
usemtl main_texture
f 1/1/1 5/5/1 6/6/2 2/2/2
f 5/5/1 47/47/1 48/48/1 6/6/2
f 1/1/1 2/2/2 7/7/1 3/3/1
f 3/3/1 7/7/1 72/72/1 71/71/1
f 2/2/2 69/69/3 68/68/4 7/7/1
f 7/7/1 68/68/4 67/67/1 72/72/1
f 1/1/1 3/3/1 8/8/1 4/4/2
f 1/1/1 4/4/2 9/9/1 5/5/1
f 5/5/1 9/9/1 46/46/1 47/47/1
f 4/4/2 73/73/2 74/74/1 9/9/1
f 10/10/1 14/14/1 15/15/1 11/11/1
f 14/14/1 53/53/2 52/52/2 15/15/1
f 10/10/1 11/11/1 16/16/1 12/12/1
f 12/12/1 16/16/1 48/48/1 47/47/1
f 10/10/1 12/12/1 17/17/2 13/13/1
f 12/12/1 47/47/1 46/46/1 17/17/2
f 10/10/1 13/13/1 18/18/1 14/14/1
f 14/14/1 18/18/1 54/54/1 53/53/2
f 19/19/1 23/23/1 24/24/1 20/20/1
f 23/23/1 56/56/1 57/57/1 24/24/1
f 19/19/1 20/20/1 25/25/1 21/21/1
f 20/20/1 76/76/2 75/75/1 25/25/1
f 19/19/1 21/21/1 26/26/1 22/22/1
f 21/21/1 60/60/2 61/61/3 26/26/1
f 19/19/1 22/22/1 27/27/1 23/23/1
f 23/23/1 27/27/1 55/55/1 56/56/1
f 28/28/1 32/32/1 33/33/1 29/29/2
f 32/32/1 50/50/2 51/51/1 33/33/1
f 33/33/1 51/51/1 58/58/1 63/63/1
f 28/28/1 29/29/2 34/34/1 30/30/1
f 30/30/1 34/34/1 57/57/1 56/56/1
f 28/28/1 30/30/1 35/35/1 31/31/1
f 30/30/1 56/56/1 55/55/1 35/35/1
f 28/28/1 31/31/1 36/36/2 32/32/1
f 32/32/1 36/36/2 49/49/2 50/50/2
f 31/31/1 77/77/1 78/78/2 36/36/2
f 37/37/1 41/41/1 42/42/2 38/38/2
f 38/38/2 42/42/2 52/52/2 53/53/2
f 37/37/1 38/38/2 43/43/2 39/39/1
f 38/38/2 53/53/2 54/54/1 43/43/2
f 37/37/1 39/39/1 44/44/1 40/40/1
f 40/40/1 44/44/1 51/51/1 50/50/2
f 44/44/1 64/64/1 58/58/1 51/51/1
f 37/37/1 40/40/1 45/45/1 41/41/1
f 41/41/1 45/45/1 80/80/1 79/79/1
f 40/40/1 50/50/2 49/49/2 45/45/1
f 2/2/2 6/6/2 100/100/2 69/69/3
f 6/6/2 48/48/1 59/59/1 100/100/2
f 4/4/2 8/8/1 103/103/2 73/73/2
f 3/3/1 71/71/1 102/102/1 8/8/1
f 8/8/1 102/102/1 101/101/5 103/103/2
f 9/9/1 74/74/1 89/89/2 46/46/1
f 11/11/1 15/15/1 90/90/1 91/91/2
f 15/15/1 52/52/2 70/70/2 90/90/1
f 11/11/1 91/91/2 92/92/1 16/16/1
f 16/16/1 92/92/1 59/59/1 48/48/1
f 13/13/1 17/17/2 88/88/1 66/66/1
f 17/17/2 46/46/1 89/89/2 88/88/1
f 13/13/1 66/66/1 99/99/1 18/18/1
f 18/18/1 99/99/1 65/65/1 54/54/1
f 20/20/1 24/24/1 93/93/1 76/76/2
f 24/24/1 57/57/1 83/83/1 93/93/1
f 21/21/1 25/25/1 97/97/1 60/60/2
f 25/25/1 75/75/1 96/96/6 97/97/1
f 22/22/1 26/26/1 98/98/1 62/62/2
f 26/26/1 61/61/3 95/95/3 98/98/1
f 22/22/1 62/62/2 81/81/1 27/27/1
f 27/27/1 81/81/1 82/82/1 55/55/1
f 29/29/2 33/33/1 63/63/1 85/85/2
f 29/29/2 85/85/2 84/84/1 34/34/1
f 34/34/1 84/84/1 83/83/1 57/57/1
f 31/31/1 35/35/1 94/94/1 77/77/1
f 35/35/1 55/55/1 82/82/1 94/94/1
f 36/36/2 78/78/2 104/104/2 49/49/2
f 41/41/1 79/79/1 105/105/2 42/42/2
f 42/42/2 105/105/2 70/70/2 52/52/2
f 39/39/1 43/43/2 87/87/2 86/86/1
f 43/43/2 54/54/1 65/65/1 87/87/2
f 39/39/1 86/86/1 64/64/1 44/44/1
f 45/45/1 49/49/2 104/104/2 80/80/1
